<svg id="Layer_1" data-name="Layer 1" xmlns="http://www.w3.org/2000/svg" viewBox="0 0 4500 4500"><rect x="3200" width="1300" height="1300" rx="650" fill="#ffa022"/><rect x="3200" y="1600" width="1300" height="1300" fill="#5a5aff"/><path d="M5185.26,3751.77v1050c0,138.07-111.93,250-250,250h-4000c-138.07,0-250-111.93-250-250v-4000c0-138.07,111.93-250,250-250h2650v1300h-1450a150,150,0,0,0-150,150h0a150,150,0,0,0,150,150h1450v1300h-1450a150,150,0,0,0-150,150h0a150,150,0,0,0,150,150Z" transform="translate(-685.26 -551.77)" fill="#5a5aff"/></svg>